/* XPM */
static char *cacf277b3e5e475ee3f958fb2ae8148fSLZmlI8XK7fEycwL[] = {
/* columns rows colors chars-per-pixel */
"64 64 180 2 ",
"   c None",
".  c #1F160D",
"X  c #1D1715",
"o  c #1E1B15",
"O  c #1D1D19",
"+  c #181715",
"@  c #261700",
"#  c #231615",
"$  c #2A1516",
"%  c #231A15",
"&  c #2B1B15",
"*  c #24171A",
"=  c #2C161B",
"-  c #241C1A",
";  c #2A1B1B",
":  c #301410",
">  c #31151D",
",  c #331A1B",
"<  c #331A15",
"1  c #1D200F",
"2  c #1B2116",
"3  c #1C221A",
"4  c #172218",
"5  c #25230E",
"6  c #242114",
"7  c #24211C",
"8  c #28201E",
"9  c #282516",
"0  c #1E1C21",
"q  c #2C1621",
"w  c #241B21",
"e  c #2A1C21",
"r  c #1A2325",
"t  c #262323",
"y  c #2B2322",
"u  c #2D2E2B",
"i  c #2C2C22",
"p  c #322B2C",
"a  c #27312B",
"s  c #2D3027",
"d  c #383428",
"f  c #282D30",
"g  c #262E31",
"h  c #533E2B",
"j  c #4D3B35",
"k  c #4C3C3B",
"l  c #443E32",
"z  c #533635",
"x  c #543B35",
"c  c #593D35",
"v  c #54353D",
"b  c #5B343C",
"n  c #533C3B",
"m  c #5B3C3B",
"M  c #5C3234",
"N  c #673C39",
"B  c #4C482F",
"V  c #55452C",
"C  c #454237",
"Z  c #4D4335",
"A  c #4D433A",
"S  c #534135",
"D  c #52423A",
"F  c #59423D",
"G  c #5E4237",
"H  c #61443E",
"J  c #7A4A3C",
"K  c #7D4A37",
"L  c #7C533F",
"P  c #4D3B43",
"I  c #533E43",
"U  c #5B3B43",
"Y  c #503546",
"T  c #4F4140",
"R  c #534342",
"E  c #5A4342",
"W  c #57424B",
"Q  c #614448",
"!  c #734641",
"~  c #734B44",
"^  c #7D4B44",
"/  c #7B4D4A",
"(  c #7B474B",
")  c #7C5041",
"_  c #7C524B",
"`  c #7C4E51",
"'  c #7F7F73",
"]  c #B63C2D",
"[  c #B93A37",
"{  c #C53F36",
"}  c #83463C",
"|  c #834A3E",
" . c #B64235",
".. c #BE4435",
"X. c #B24637",
"o. c #C4403C",
"O. c #AE3F46",
"+. c #B93944",
"@. c #C33C40",
"#. c #814644",
"$. c #834B43",
"%. c #8C4B43",
"&. c #85474C",
"*. c #854C4B",
"=. c #8C4C4D",
"-. c #8B4641",
";. c #99464E",
":. c #825145",
">. c #82524D",
",. c #834B51",
"<. c #825351",
"1. c #B94049",
"2. c #8E756E",
"3. c #8F796E",
"4. c #93746C",
"5. c #9A746D",
"6. c #94796E",
"7. c #9A7A6D",
"8. c #9B6E71",
"9. c #9B6E75",
"0. c #8B7573",
"q. c #867B76",
"w. c #8E7D73",
"e. c #957473",
"r. c #9B7473",
"t. c #947974",
"y. c #997A74",
"u. c #92767A",
"i. c #9D757A",
"p. c #947B7B",
"a. c #9C7B7B",
"s. c #A26B6E",
"d. c #A3726E",
"f. c #A36D76",
"g. c #A27576",
"h. c #A47973",
"j. c #A1747B",
"k. c #A27A7C",
"l. c #C54748",
"z. c #DD7D6D",
"x. c #D87A61",
"c. c #CE7D75",
"v. c #DE7778",
"b. c #D37B7C",
"n. c #DC7D7A",
"m. c #EB756D",
"M. c #EC7772",
"N. c #E87B75",
"B. c #7C8778",
"V. c #8E8478",
"C. c #93827B",
"Z. c #9B8178",
"A. c #CF816B",
"S. c #DA846D",
"D. c #DA8276",
"F. c #E38168",
"G. c #9E7A81",
"H. c #D77782",
"J. c #898581",
"K. c #9A8482",
"L. c #AF868C",
"P. c #AB8D88",
"I. c #B38B86",
"U. c #BB8C84",
"Y. c #B48D8B",
"T. c #BC8C8C",
"R. c #B88582",
"E. c #AD9088",
"W. c #A99386",
"Q. c #B59283",
"!. c #B4928B",
"~. c #B48B93",
"^. c #BD8E92",
"/. c #B29492",
"(. c #BA9194",
"). c #C68780",
"_. c #C88A8B",
"`. c #D28383",
"'. c #D18882",
"]. c #C1908C",
/* pixels */
"0 % & = * 3 % * - q w q * ; 3 %                                                                 % 3 ; * q w q - * % 3 * = & % 0 ",
"q v x R U C m I Z x O - # ; - =                                                                 = - ; # - O x Z I m C U R x v q ",
"- >.) ~ #.:.$.^ K $.1 7 - * * $                                                                 $ * * - - 1 $.K ^ $.:.^ ~ ) >.- ",
"@ [ X.{  ...] o.@.1.& - O O ; ;                                                                 ; ; O O - & 1.@.o.] .. .{ X.[ @ ",
"- / %.$.-.+.) *.) ^ 2 * * * - 4                                                                 4 - * * * 2 ^ L *.) +.-.$.%./ - ",
"* =.J _ >.h $.~ *.&.- - - ; ; #                                                                 % ; ; - - - &.*.~ $.h >._ J =.* ",
"= ( r.y.8.A ( a.e.8.; * - # - =                                                                 = - # - * ; 8.e.a.( A 8.y.r.( = ",
"& V.5.e.a.c 7.r.t.a.# * 7 * 3 -                                                                 - 3 * 7 * # a.t.r.7.c a.e.5.V.& ",
"* y.E.].r.I 6.!.E.e.* - % 7 ; e                                                                 e ; 7 % - * e.E.!.6.I r.].E.y.* ",
"- e.n Z r.R 2.x m a.* * 8 X * -                                                                 - * X ; * * a.m x 2.R r.Z n e.- ",
"& a.f B.t.m t.p p.0.- - * i # -                                                                 - # y * - - 0.p.p t.m t.B.f a.& ",
"q r.x c p.v k.x x p.- - ; % ; -                                                                 - ; % ; - - p.x x k.v p.c x r.q ",
"o y.~._.7.D 6.(.Y.a.X - * - ; -                                                                 - ; - * - X a.Y.(.6.D 7._.~.y.o ",
"& 4.T.Q.b.x 7.L.U.5.- e * * ; -                                                                 - ; * * t - 5.U.L.7.x b.Q.T.4.& ",
"r b.D.M.r.Y y.N.).d.% O ; - ; X                                                                 X ; - ; O % d.).N.y.Y r.M.D.b.r ",
"$ ^ %.J / E #.^ %.^ & - * % $ -                                                                 7 $ % * - & ^ %.^ #.E / J %.^ $ ",
"O m U z F R x U D m - - % 7 - O                                                                 O - - # - - m D U x R F z U m O ",
"o c k D m j x A S m O - ; - ; ;                                                                 ; ; - $ - O m S A x j m D k c o ",
"& *.*.^ ~ v _ ^ / ` ; * % - * e                                                                 e * - # * ; ` _ ^ _ v ~ ^ *.*.; ",
"- *.*.^ a.I 5.$.^ ,.$ - 8 7 X *                                                                 * X 7 ; - $ ,.^ $.5.I a.^ *.*.- ",
"q ! 5.5.r.U ! h.y.r.- o * - * =                                                                 = * - - o - r.y.h.! U r.5.5.! q ",
"O r.K.2.a.I t.t.y.e.X O - - * *                                                                 * - - - O X e.y.t.t.I a.2.K.r.O ",
"- g.L.Y.e.E r.~.P.k.* - # o 7 -                                                                 - 7 o % - * k.P.~.r.U e.Y.L.g.- ",
"% t.p V.t.m 3.p C.u.X e ; * = $                                                                 $ ; * ; e X u.C.p 3.m e.V.p t.% ",
"% G.g J.a.D 9.u B.p.* # ; o - w                                                                 w - o ; # * p.B.u 9.D a.J.g G.% ",
"2 e.S M Z.k y.S m i.- t # - ; =                                                                 = ; - # t - i.m S y.k Z.M S e.2 ",
"* e.W.Q.u.z u.Y.Y.i.* w * - - 7                                                                 7 - - * w * i.Y.Y.u.z u.Q.W.e.* ",
"< i.].~.v.N 7.~.Q.4.7 7 = * # -                                                                 - # * = 7 7 4.Q.~.7.N v.Y.].i.< ",
"X n.A.x.g.j t.M.n.`.: % * 7 - O                                                                 O - 7 * % : `.n.M.t.j g.x.A.n.X ",
"9 / $.=.| Z _ ( J >.& - ; # * e                                                                 e * # ; - & >.J ( _ Z | =.$./ 9 ",
"# - q % ; A > * % $ 7 * $ 7 7 X                                                                 X 7 7 $ * 7 $ % * > A ; % q - # ",
"7 * $ - % U o * w q 0 t * - % =                                                                 = % - * t 0 q w * o U % - $ * 7 ",
"- $.*.^ / E ^ *.^ *.% - * ; * %                                                                 % * ; * - 6 *.^ *.^ E / ^ *.$.- ",
"O >.! _ r.n h.! >.^ . % % ; - ;                                                                 ; - ; % % . ^ >.! h.n r._ ! *.O ",
"7 d.r.h.e.k / h.r.8.7 - * * 8 %                                                                 % 8 * * - 7 r.r.h./ k e.h.r.d.7 ",
"O s.^.I.y.T 5.Y./.r.7 ; * - % ;                                                                 ; % - * ; 7 r./.Y.5.T y.I.(.s.O ",
"- g.I x t.n r.m z i.7 # e * X ;                                                                 ; X * e X O i.z m r.n t.x I g.- ",
"# t.a ' y.Q 4.s K.e.- ; * 7 - *                                                                 * - - * ; - e.K.s 4.Q y.' a t.# ",
"y e.a J.t.z e.u q.G.X ; % % y #                                                                 # y % # ; X G.q.u e.z t.J.a e.y ",
"* r.I z e.n r.n A u.7 ; - - X ;                                                                 ; X - - ; 7 u.A n r.n e.z I r.* ",
"O i.Y.U.r.x p.T.Y.5.- 7 X $ 7 *                                                                 - 7 $ o 7 - 5.Y.T.p.x r.U.Y.i.O ",
"7 f.U.!.b.x 5.!.'.'.$ ; ; w % *                                                                 * % w ; & $ `.'.!.5.x b.!.U.f.7 ",
"X n.z.S.a.z Z.m.D.D.$ * - 0 & ;                                                                 ; & 0 - = $ D.D.m.Z.z a.S.z.n.X ",
"; <.} :.^ A ^ :.J | O - - w % *                                                                 * % w - - - | J :.^ A ^ :.} <.; ",
"- v R b n I v n F x t X o ; 6 e                                                                 q % ; X X t x F n v I n b R v - ",
"* D D B I x R c v m * % & = O w                                                                 w O = & % * m v c R x I B D D * ",
"5 / J &.| x J >.` <.* ; % ; o w                                                                 w o ; % ; * <.` >.J x | &.J / 5 ",
"w t.$.$.u.W j.J ) | O ; * w & -                                                                 - & w * ; O | ) J j.W u.$.$.t.w ",
"- e.r.r.g.C *.5.r.r.7 % - - * *                                                                 * * - - % 7 r.r.5.*.C g.r.r.e.- ",
"- r.^.(.r.m y.T./.r.X ; - * - -                                                                 - * * - ; X r./.T.y.m r.(.^.r.- ",
"- i.x l a.m 0.m D e.7 - * # 7 %                                                                 % 7 # * - 7 e.D m 0.m a.l x i.- ",
"* e.d B.r.n a.i q.j.O + e y O ;                                                                 ; O y e + O j.q.i a.n r.B.d e.* ",
"= e.x D 8.D f.D E e.7 * - # X ;                                                                 ; X # - * 7 e.E D f.D 8.D x e.= ",
"% 0.T.T.Z.j a.Y.Y.2.; , + t = o                                                                 o = t + , ; 2.Y.Y.a.j Z.T.T.0.% ",
"- C.I.R.r.Z w.T.U.h.. ; t * ; *                                                                 * ; * t ; . h.U.T.w.Z r.R.I.C.- ",
"$ r.!.].H.S 5.T.U.`.& X = * O =                                                                 = O * = X & `.U.T.5.S H.].!.r.$ ",
"& c.F.N.r.v y.z.m.c.< - * * ; 6                                                                 6 ; * * - < c.m.z.y.v r.N.F.c.& ",
"4 &.#.#._ A &.#.$._ # - * - ; O                                                                 O ; - * - # _ $.#.&.A _ #.#.&.4 ",
"> m H Z x A j S n n - 7 - O ; *                                                                 * ; 3 7 7 - n n S j A x Z H m > ",
"- P P x V +.G n S x # $ $ ; , ;                                                                 ; , ; $ $ # x S n G +.V x P P - ",
"6 :. . .[ l.X...O.;., 7 r 3 % %                                                                 % % 3 r 7 , ;.O...X.l.[  . .:.6 ",
"2 ,.*.$.^ $.^ ^ J ~ % * * ; ; 3                                                                 3 ; ; * * # ~ J ^ ^ $.^ $.*.,.2 ",
"q b x x n I n N D D 7 ; ; - ; -                                                                 - ; - ; ; 7 D D N n I n x x b q ",
"3 = 7 $ - 7 X * - = * - o 2 * q                                                                 q * 2 o - * = - * X 7 - $ 7 = 3 "
};
