/* XPM */
static char *abecc8cbd99242fc8ee3d06236d80be7hsSHXIwAfoYagTro[] = {
/* columns rows colors chars-per-pixel */
"64 64 147 2 ",
"   c #000000",
".  c #0C0C0C",
"X  c #17190E",
"o  c #1C1B0D",
"O  c #161616",
"+  c #1C1514",
"@  c #171A12",
"#  c #1C1C15",
"$  c #1D161A",
"%  c #1A1919",
"&  c #24180C",
"*  c #260F17",
"=  c #231615",
"-  c #2A1516",
";  c #231A16",
":  c #2A1B16",
">  c #23161A",
",  c #2B161C",
"<  c #241B1B",
"1  c #2A1C1C",
"2  c #301615",
"3  c #31161F",
"4  c #301D1E",
"5  c #1E2515",
"6  c #17201B",
"7  c #1C221C",
"8  c #222014",
"9  c #24211C",
"0  c #2A201D",
"q  c #1D1B20",
"w  c #2B1722",
"e  c #251B22",
"r  c #2A1C21",
"t  c #2C1A28",
"y  c #341527",
"u  c #301B20",
"i  c #351D2B",
"p  c #1D2321",
"a  c #242223",
"s  c #2C2223",
"d  c #2C2C2C",
"f  c #312E2E",
"g  c #322F30",
"h  c #353434",
"j  c #393635",
"k  c #363638",
"l  c #3C3C3C",
"z  c #45392D",
"x  c #4C3F36",
"c  c #403E3F",
"v  c #4B3D3A",
"b  c #523C36",
"n  c #553E39",
"m  c #5D393B",
"M  c #623C3E",
"N  c #63343C",
"B  c #464034",
"V  c #4E4737",
"C  c #44453D",
"Z  c #4B403A",
"A  c #55433D",
"S  c #5B433E",
"D  c #6B5838",
"F  c #735539",
"G  c #3F3F41",
"H  c #414041",
"J  c #575151",
"K  c #5D5757",
"L  c #5C5857",
"P  c #5E5958",
"I  c #624340",
"U  c #734442",
"Y  c #7C4546",
"T  c #7C4C43",
"R  c #7E4E4A",
"E  c #615957",
"W  c #615B5B",
"Q  c #7E5553",
"!  c #83473C",
"~  c #83493E",
"^  c #8B3F41",
"/  c #B13D46",
"(  c #BC3E41",
")  c #C03B40",
"_  c #804645",
"`  c #8C4243",
"'  c #814B41",
"]  c #884B45",
"[  c #834C49",
"{  c #904542",
"}  c #835446",
"|  c #83524E",
" . c #875151",
".. c #8F7469",
"X. c #837C6C",
"o. c #957465",
"O. c #93756B",
"+. c #9B736F",
"@. c #977B6D",
"#. c #99796A",
"$. c #8F7773",
"%. c #8E7974",
"&. c #8B7578",
"*. c #8C7E78",
"=. c #977573",
"-. c #947572",
";. c #9B7270",
":. c #9E7070",
">. c #9E7573",
",. c #9E7676",
"<. c #967876",
"1. c #977F75",
"2. c #967974",
"3. c #997B73",
"4. c #9D7870",
"5. c #9E7178",
"6. c #95787D",
"7. c #957C79",
"8. c #9F7C7A",
"9. c #A26C6C",
"0. c #A67267",
"q. c #A77775",
"w. c #D87D78",
"e. c #DA7E7F",
"r. c #E1766C",
"t. c #808277",
"y. c #8E8077",
"u. c #93867D",
"i. c #95807B",
"p. c #CE817B",
"a. c #E5817F",
"s. c #DE7681",
"d. c #DF7A80",
"f. c #8B8788",
"g. c #AF8E85",
"h. c #AF888B",
"j. c #A88C88",
"k. c #B58D85",
"l. c #A89587",
"z. c #AE918B",
"x. c #AC938E",
"c. c #AE938D",
"v. c #BA9582",
"b. c #B9908E",
"n. c #B39690",
"m. c #B69B94",
"M. c #D18383",
/* pixels */
"> 9 q e ; < $ 1 < < <                                                                                     < < < 1 $ < ; e q 9 < ",
"< & S , # 9 r ; < < <                                                                                     < < < ; r 9 # , S & < ",
"9 ! ~ ; < ; ; ; < < <                                                                                     < < < ; ; ; # ; ~ ! 9 ",
"< ) ( : p < < < < < <                                                                                     < < < < < < p : ( ) < ",
"> F D < w 1 < < < < <                                                                                     < < < < < 1 w < D F > ",
", ] ' 1 > 1 > < < < <                                                                                     < < < < > 1 > 1 ' ] , ",
"1 U ,.1 : 0 a = < < <                                                                                     < < < = a 0 : 1 ,.U 1 ",
": y.6., ; # > 1 < < <                                                                                     < < < 1 > # ; , 6.y.: ",
"< +.h.r ; : < < < < <                                                                                     < < < < < : ; r h.+.< ",
"# 3.M > ; # < , < < <                                                                                     < < < , < # ; > M 3.# ",
"; X.t.a 1 : % r < < <                                                                                     < < < r % : 1 a t.X.; ",
", q.M > < - < # < < <                                                                                     < < < # < - < > M q.1 ",
"< ..x.w = < > 1 < < <                                                                                     < < < 1 > < = w x...< ",
"1 @.l.< > > r ; < < <                                                                                     < < < ; r > > < l.@.1 ",
"- d.s.- 7 u * 9 < < <                                                                                     < < < 9 - u 7 - s.d.- ",
"< ' ' 0 # $ s = < < <                                                                                     < < < + s $ # 0 ' ' 8 ",
"1 b x < 1 = < < < < <                                                                                     < < < < < = 1 < x b 1 ",
"; I n < > 1 0 ; < < <                                                                                     < < < ; 0 1 > < n I ; ",
"< U Q ; $ = < r < < <                                                                                     < < < r < = $ ; Q U < ",
"9  .Y 1 9 1 1 $ < < <                                                                                     < < < $ 1 1 9 1 Y  .9 ",
";  .9.; 9 = ; a < < <                                                                                     < < < a ; = 9 < 9. .; ",
"< :.>.0 < 1 1 $ < < <                                                                                     < < < $ 1 1 < 0 >.:.< ",
"< 2.x.; < = < < < < <                                                                                     < < < < < = < ; x.2.< ",
"< $.u.+ w 1 < < < < <                                                                                     < < < < < 1 w + u.$.< ",
"; &.f.< ; - < < < < <                                                                                     < < < < < - ; < f.&.; ",
"< 5.N , 7 = 1 < < < <                                                                                     < < < < 1 = 7 , N 5.< ",
"> 1.g.1 e < 1 > < < <                                                                                     < < < > 0 < e 1 g.1.; ",
"> o.v.< w < < 1 < < <                                                                                     < < < 1 < < w < v.o.> ",
"< e.w.; > < ; < < < <                                                                                     < < < < ; < > ; w.e.< ",
"< ` ] X s 1 o < < < <                                                                                     < < < < o 1 s X ] ` < ",
"< 0 8 < = = < < < < <                                                                                     < < < < < = = < ; 0 < ",
"< $ e 3 6 < < e < < <                                                                                     < < < e < < 6 3 e $ < ",
"1 T T : < < < ; < < <                                                                                     < < < ; < < < : T T 1 ",
"< R T : ; 1 ; 0 < < <                                                                                     < < < 0 ; 1 ; : T R < ",
"1 ;.4.1 ; 1 ; $ < < <                                                                                     < < < $ ; 1 ; 1 4.;.1 ",
"< =.z.= r < 0 r < < <               . . . . . . . . .   . .     . . . . . .                               < < < r 0 < r = z.=.< ",
"; 2.A < > 0 ; > < < <                 . .                                       . . .                     < < < > ; 0 > < A 2.; ",
"r 7.*.< r ; # r < < <               . . . . . . . . . . . . . . . . . . . . . .   .                       < < < r # ; r < *.7.r ",
"= i.*.; 1 ; 9 > < < <                                                                                     < < < > 9 ; 1 ; *.i.= ",
"1 %.Z r 1 ; 8 w < < <           . . . . . . . . . . . . . . . . . . . . . . . . . . . . . .               < < < w 8 ; 1 r Z %.1 ",
"w O.b.1 = 1 1 # < < <       . . . . . . . . . . . . . . . . . . . . . . . . . . . . . . . .               < < < # 1 1 = 1 b.O.w ",
"; #.k.< 1 @ < 4 < < <           . . . . . . . . . . . . . . . . . . . . . . . . . . . . .                 < < < 4 < @ 1 < k.#.; ",
": p.M.; 1 < s + 1 ; ;                                                                                     < < < + s < 1 ; M.p.: ",
"- { ^ 1 1 ; > 0 < < <       . . . . . . . . . . . . . . . . . . . . . . . . . . . . . . . . .             < < < 0 > ; 1 1 ^ { - ",
"e V b < = a < = = 1 <     . . . . . . . . . . . . . . . . . . . . . . . . . . . . . . . . . O O           < < < = < a = < b V e ",
"e B n < > < 1 ; < < ;       . O O O O O O O O O O O O O O O O O O O O O O O O O % O % % % % O             < < < ; 1 < > < n B e ",
"w | Y < < < 1 < 1 < ;         % % % % % % % % % % % % % % % % % % % % % % % % % % O O O O % O             < < < ; 1 < < < Y | w ",
"# 0.[ < < # $ 1 = 1 <                                                                                     < < < 1 $ # < < [ 0.# ",
"1 =.2.1 < = < < = < <     O % % % % % % % % % % % % % % % % % % % % % % % % % % % % % % % % % % +         $ < < < < = < 1 2.=.1 ",
"< -.m.+ 1 < < < < 1 ;   h % % O % % % % % % % % % % % % % % % % % % % % % % % % % % % % % % % % + d       < 0 < < < < 1 + m.-.< ",
"< 2.n s > < < < < ; ;     d d d d d d d d d d d d d d d d d d d d d d d d d d d d d d d d d d d d         < = = < < < > s n 2.< ",
"< -.7.< < < + r < < <     h d d d d d d d d d d d d d d d d d d d d d d d d d d d d d d d d d d d         ; < s r + < < < 1.-.< ",
"< -.S ; > 0 < > = 1 <                                                                                 .   < ; = > < 0 > ; S -.< ",
"= 2.j.< s ; 9 < 1 ; $   d d h d d d d d d d d d d d d d d d d d d d d d d d d d d d d d d d d d g a       < 1 < < 9 ; s < j.2.= ",
"< 8.n.= > = < < = < s   h d d d d d d d d d d d d d d d d d d d d d d d d d d d d d d d d d d d a h     . + s = < < = > = n.8.< ",
"1 +.z.1 < < ; 1 1 < $ H h l l l l l l l l l l l l l l l l l l l l l l l l l l l l l l l l l l l l l l l   < ; < 1 ; < < 1 z.+.1 ",
"; a.r.o t e ; < 1 < <   H l l l l l l l l l l l l l l l l l l l l l l l l l l l l l l l l l l l G l l     > < 1 < ; e t o r.a.; ",
"8 _ } 0 , > 4 1 < = ;   l k H H l l l l l l l l l l l l l l l l l l l l l l l l l l l l l l l l h l l     < 1 ; 1 4 > , 0 } _ 8 ",
"< C v = < < 6 - < s < f h l h h h h h h h h h h h h h h h h h h h h h h h h h h h h h h h h h h h h l d g a ; 1 - 6 < < = v C < ",
": m A : 1 < ; 7 ; ; < h h h h h h h h h h h h h h h h h h h h h h h h h h h h h h h h h h h h h h h h h j ; ; < 7 ; < 1 : A m : ",
"# ` / ; a ; - 1 1 ; $ l h g j h h h h h h h h h h h h h h h h h h h h h h h h h h h h h h h h h f h h h j $ 0 < 1 - ; a ; / ` # ",
"< T } @ y < 2 % ; < < W K P P K L L L L L L L L L L L L L L L L L L L L L L L L L L L L L L L L W P K W P < < ; % 2 < y @ } T < ",
"1 5 z 9 , @ 9 ; < < < J W J W K K K K K K K K K K K K K K K K K K K K K K K K K K K K K K K K K K K K K K ; 1 ; ; 9 @ , 9 z 5 1 ",
"< $ i , 8 8 - < < 1 = K P K K E K K K K K K K K K K K K K K K K K K K K K K K K K K K K K K K K E K P K W ; 1 < < - 8 8 , i $ < "
};
