/* XPM */
static char *_6f2bb265d0c4ab5f6abcb65765bacee8PepT6sbzm0hiyZz[] = {
/* columns rows colors chars-per-pixel */
"64 64 186 2 ",
"   c #000000",
".  c #0C0C0C",
"X  c #1F160D",
"o  c #161616",
"O  c #1D1715",
"+  c #1E1B15",
"@  c #1A1A19",
"#  c #191817",
"$  c #261700",
"%  c #231615",
"&  c #2A1516",
"*  c #231A15",
"=  c #2B1B15",
"-  c #24171A",
";  c #2C161B",
":  c #241C1A",
">  c #2A1B1B",
",  c #301410",
"<  c #31151D",
"1  c #331A1B",
"2  c #331A15",
"3  c #1D200F",
"4  c #1B2116",
"5  c #1C221A",
"6  c #172218",
"7  c #25230E",
"8  c #242114",
"9  c #24211C",
"0  c #28201E",
"q  c #282516",
"w  c #1E1C21",
"e  c #2C1621",
"r  c #241B21",
"t  c #2A1C21",
"y  c #1A2325",
"u  c #262323",
"i  c #2B2322",
"p  c #2C2C2C",
"a  c #2C2C22",
"s  c #322B2C",
"d  c #27312B",
"f  c #2D3027",
"g  c #282D30",
"h  c #262E31",
"j  c #353434",
"k  c #3C3C3C",
"l  c #383428",
"z  c #533E2B",
"x  c #4D3B35",
"c  c #4C3C3B",
"v  c #443E32",
"b  c #533635",
"n  c #543B35",
"m  c #593D35",
"M  c #54353D",
"N  c #5B343C",
"B  c #533C3B",
"V  c #5B3C3B",
"C  c #5C3234",
"Z  c #673C39",
"A  c #4C482F",
"S  c #55452C",
"D  c #454237",
"F  c #4D4335",
"G  c #4D433A",
"H  c #534135",
"J  c #52423A",
"K  c #59423D",
"L  c #5E4237",
"P  c #61443E",
"I  c #7A4A3C",
"U  c #7D4A37",
"Y  c #7C533F",
"T  c #4D3B43",
"R  c #533E43",
"E  c #5B3B43",
"W  c #503546",
"Q  c #4F4140",
"!  c #534342",
"~  c #5A4342",
"^  c #57424B",
"/  c #5D5757",
"(  c #5C5857",
")  c #614448",
"_  c #734641",
"`  c #734B44",
"'  c #7D4B44",
"]  c #7B4D4A",
"[  c #7B474B",
"{  c #7C5041",
"}  c #7C524B",
"|  c #7C4E51",
" . c #7F7F73",
".. c #B63C2D",
"X. c #B93A37",
"o. c #C53F36",
"O. c #83463C",
"+. c #834A3E",
"@. c #B64235",
"#. c #BE4435",
"$. c #B24637",
"%. c #C4403C",
"&. c #AE3F46",
"*. c #B93944",
"=. c #C33C40",
"-. c #814644",
";. c #834B43",
":. c #8C4B43",
">. c #85474C",
",. c #854C4B",
"<. c #8C4C4D",
"1. c #8B4641",
"2. c #99464E",
"3. c #825145",
"4. c #82524D",
"5. c #834B51",
"6. c #825351",
"7. c #B94049",
"8. c #8E756E",
"9. c #8F796E",
"0. c #93746C",
"q. c #9A746D",
"w. c #94796E",
"e. c #9A7A6D",
"r. c #9B6E71",
"t. c #9B6E75",
"y. c #8B7573",
"u. c #867B76",
"i. c #8E7D73",
"p. c #957473",
"a. c #9B7473",
"s. c #947974",
"d. c #997A74",
"f. c #92767A",
"g. c #9D757A",
"h. c #947B7B",
"j. c #9C7B7B",
"k. c #A26B6E",
"l. c #A3726E",
"z. c #A36D76",
"x. c #A27576",
"c. c #A47973",
"v. c #A1747B",
"b. c #A27A7C",
"n. c #C54748",
"m. c #DD7D6D",
"M. c #D87A61",
"N. c #CE7D75",
"B. c #DE7778",
"V. c #D37B7C",
"C. c #DC7D7A",
"Z. c #EB756D",
"A. c #EC7772",
"S. c #E87B75",
"D. c #7C8778",
"F. c #8E8478",
"G. c #93827B",
"H. c #9B8178",
"J. c #CF816B",
"K. c #DA846D",
"L. c #DA8276",
"P. c #E38168",
"I. c #9E7A81",
"U. c #D77782",
"Y. c #898581",
"T. c #9A8482",
"R. c #AF868C",
"E. c #AB8D88",
"W. c #B38B86",
"Q. c #BB8C84",
"!. c #B48D8B",
"~. c #BC8C8C",
"^. c #B88582",
"/. c #AD9088",
"(. c #A99386",
"). c #B59283",
"_. c #B4928B",
"`. c #B48B93",
"'. c #BD8E92",
"]. c #BA9194",
"[. c #B29492",
"{. c #C68780",
"}. c #C88A8B",
"|. c #D28383",
" X c #D18882",
".X c #C1908C",
/* pixels */
"w * = ; - 5 * - : e r e - > 5 *                                                                 * 5 > - e r e : - * 5 - ; = * w ",
"e M n ! E D V R F n + : % > : ;                                                                 ; : > % : + n F R V D E ! n M e ",
": 4.{ ` -.3.;.' U ;.3 9 : - - &                                                                 & - - : : 3 ;.U ' ;.3.' ` { 4.: ",
"$ X.$.o.@.#...%.=.7.= : @ + > >                                                                 > > + @ : = 7.=.%...#.@.o.$.X.$ ",
": ] :.;.1.*.{ ,.{ ' 4 - - - : 6                                                                 6 : - - - 4 ' Y ,.{ *.1.;.:.] : ",
"- <.I } 4.z ;.` ,.>.: : : > > %                                                                 * > > : : : >.,.` ;.z 4.} I <.- ",
"; [ a.d.r.G [ j.p.r.> - : % : ;                                                                 ; : % : - > r.p.j.[ G r.d.a.[ ; ",
"= F.q.p.j.m e.a.s.j.% - 9 - 5 :                                                                 : 5 - 9 - % j.s.a.e.m j.p.q.F.= ",
"- d./..Xa.R w._./.p.- : * 9 > t                                                                 t > 9 * : - p./._.w.R a..X/.d.- ",
": p.B F a.! 8.n V j.- - 0 O - :                                                                 : & O > - - j.V n 8.! a.F B p.: ",
"= j.g D.s.V s.s h.y.: : - a % :                                                                 : % a - : : y.h.s s.V s.D.g j.= ",
"e a.n m h.M b.n n h.: : > * > :                                                                 : > * > : : h.n n b.M h.m n a.e ",
"+ d.`.}.e.J w.].!.j.O : - : > :                                                                 : > : - : O j.!.].w.J e.}.`.d.+ ",
"= 0.~.).V.n e.R.Q.q.: t - - > :                                                                 : > - - u : q.Q.R.e.n V.).~.0.= ",
"y V.L.A.a.W d.S.{.l.* + > : > O                                                                 O > : > + * l.{.S.d.W a.A.L.V.y ",
"& ' :.I ] ~ -.' :.' = : - * & :                                                                 : & * - : = ' :.' -.~ ] I :.' & ",
"+ V E b K ! n E J V : : * 9 : @                                                                 @ : : % : : V J E n ! K b E V @ ",
"+ m c J V x n G H V + : > : > >                                                                 > > : & : + V H G n x K J c m + ",
"= ,.,.' ` M } ' ] | > - * : - t                                                                 t - : % - > | } ' } M ` ' ,.,.> ",
": ,.,.' j.R q.;.] 5.& : 0 9 O -                                                                 - O 9 > : & 5.] ;.q.R j.' ,.,.: ",
"e _ q.q.a.E _ c.d.a.: + - : - ;                                                                 ; - : : + : a.d.c._ E a.q.q._ e ",
"@ a.T.8.j.R s.s.d.p.O + : : - -                                                                 - : 9 : + O p.d.s.s.R j.8.T.a.@ ",
": x.R.!.p.~ a.`.E.b.- : % + 9 :                                                                 : 9 + * : - b.E.`.a.E p.!.R.x.: ",
"* s.s F.s.V 9.s G.f.O t > - ; &                                                                 & > - > t O f.G.s 9.V p.F.s s.* ",
"* I.h Y.j.J t.p D.h.- % > + : r                                                                 r : + > % - h.D.p t.J j.Y.h I.* ",
"4 p.H C H.c d.H V g.: u % : > ;                                                                 ; > : % u : g.V H d.c H.C H p.4 ",
"- p.(.).f.b f.!.!.g.- r - : : 9                                                                 9 : : - r - g.!.!.f.b f.).(.p.- ",
"2 g..X`.B.Z e.`.).0.9 9 ; - % :                                                                 : % - ; 9 9 0.).`.e.Z B.!..Xg.2 ",
"@ C.J.M.x.x s.A.C.|., * - 9 : +                                                                 + : 9 - * , |.C.A.s.x x.M.J.C.@ ",
"q ] ;.<.+.F } [ I 4.= : > % - t                                                                 t - % > : = 4.I [ } F +.<.;.] q ",
"% : e * > G < - * & 9 - & 9 9 O                                                                 O 9 9 & - 9 & * - < G > * e : % ",
"9 - & : * E + - r e w u - : * ;                                                                 ; * : - u w e r - + E * : & - 9 ",
": ;.,.' ] ~ ' ,.' ,.* : - > - *                                                                 * - > - : 8 ,.' ,.' ~ ] ' ,.;.: ",
"+ ,._ } a.B c._ 4.] X * * > : >                                                                 > : > * * X ] 4._ c.B a.} _ ,.+ ",
"9 l.a.c.p.c ] c.a.r.9 : - - 0 *                                                                 * 0 - - : 9 a.a.c.] c p.c.a.l.9 ",
"+ k.'.W.d.Q q.!.[.a.9 > - : * >                                                                 > * : - > 9 a.[.!.q.Q d.W.].k.+ ",
": x.R n s.B a.V b g.9 % t - O >                                                                 > O - t O + g.b V a.B s.n R x.: ",
"% s.d  .d.) 0.f T.p.: > - 9 : -                                                                 - : : - > : p.T.f 0.) d. .d s.% ",
"i p.d Y.s.b p.p u.I.O > * * i %                                                                 % i * % > O I.u.p p.b s.Y.d p.i ",
"- a.R b p.B a.B G f.9 > : : O > . . . . . . . . . . . . . . . . . . . . . . . . . . . . .       > O : : > 9 f.G B a.B p.b R a.- ",
"@ g.!.Q.a.n h.~.!.q.: 9 O & 9 - . . . . . . . . . . . . . . . . . . . . . . . . . . . . . .     : 9 & + 9 : q.!.~.h.n a.Q.!.g.@ ",
"9 z.Q._.V.n q._. X X& > > r * - . . . . . . . . . . . . . . . . . . . . . . . . . . . . .       - * r > = & |. X_.q.n V._.Q.z.9 ",
"O C.m.K.j.b H.Z.L.L.& - : w = >                                                                 > = w : ; & L.L.Z.H.b j.K.m.C.O ",
"> 6.O.3.' G ' 3.I +.+ : : r * - . . . . . . . . . . . . . . . . . . . . . . . . . . o . . . .   - * r : : 9 +.I 3.' G ' 3.O.6.> ",
": M ! N B R M B K n u O + > 8 t . . . . . . . . . . . . . . . . . . . . . . . . . . . . . . o o e * > O O u n K B M R B N ! M : ",
"- J J A R n ! m M V - * = ; + r # # o o o # o o o o o o o o # # o o o o o o o o # o # @ # # o   r + ; = * - V M H ! n R A J J - ",
"7 ] I >.+.n I 4.| 6.- > * > + r # # # # # # # # # # # # # # # # # # # # # # # # # o o o o @ o   r + > * > - 6.| 4.I n +.>.I ] 7 ",
"r s.;.;.f.^ v.I { +.+ > - r = :                                                                 : = r - > + +.{ I v.^ f.;.;.s.r ",
": p.a.a.x.D ,.q.a.a.9 * : : - - # # # # # # # # # # # # # # # # # # # # # # # # # # # # # # # # - - : : * 9 a.a.q.,.D x.a.a.p.: ",
": a.'.].a.V d.~.[.a.O > : - : : # # # # # # # # # # # # # # # # # # # # # # # # # # # # # # # # : - - : > O a.[.~.d.V a.].'.a.: ",
": g.n v j.V y.V J p.9 : - % 9 * p p p p p p p p p p p p p p p p p p p p p p p p p p p p p p p p * 9 % - : 9 p.J V y.V j.v n g.: ",
"- p.l D.a.B j.a u.v.@ o t i + > p p p p p p p p p p p p p p p p p p p p p p p p p p p p p p p p > + i t o @ v.u.a j.B a.D.l p.- ",
"; p.n J r.J z.J ~ p.9 - : % O >                                                                 > O % : - 9 p.~ J z.J r.J n p.; ",
"* y.~.~.H.x j.!.!.8.> 1 o u ; + p p p p p p p p p p p p p p p p p p p p p p p p p p p p p p p p + ; u o 1 > 8.!.!.j.x H.~.~.y.* ",
": G.W.^.a.F i.~.Q.c.X > u - > - p p p p p p p p p p p p p p p p p p p p p p p p p p p p p p p p - > - u > X c.Q.~.i.F a.^.W.G.: ",
"& a._..XU.H q.~.Q.|.= O e - @ ; k k k k k k k k k k k k k k k k k k k k k k k k k k k k k k k k ; @ - ; O = |.Q.~.q.H U..X_.a.& ",
"= N.P.S.a.M d.m.Z.N.2 : - - > 8 k k k k k k k k k k k k k k k k k k k k k k k k k k k k k k k k 8 > - - : 2 N.Z.m.d.M a.S.P.N.= ",
"6 >.-.-.} G >.-.;.} % : - : > + k k k k k k k k k k k k k k k k k k k k k k k k k k k k k k k k + > : - : % } ;.-.>.G } -.-.>.6 ",
"< V P F n G x H B B : 9 : + > - j j j j j j j j j j j j j j j j j j j j j j j j j j j j j j j j - > 5 9 9 : B B H x G n F P V < ",
": T T n S *.L B H n % & & > 1 > j j j j j j j j j j j j j j j j j j j j j j j j j j j j j j j j > 1 > & & % n H B L *.S n T T : ",
"8 3.@.@.X.n.$.#.&.2.1 9 y 5 * * j j j j j j j j j j j j j j j j j j j j j j j j j j j j j j j j * * 5 y 9 1 2.&.#.$.n.X.@.@.3.8 ",
"4 5.,.;.' ;.' ' I ` * - - > > 5 ( ( ( ( ( ( ( ( ( ( ( ( ( ( ( ( ( ( ( ( ( ( ( ( ( ( ( ( ( ( ( ( 5 > > - - % ` I ' ' ;.' ;.,.5.4 ",
"e N n n B R B Z J J 9 > > : > : / / / / / / / / / / / / / / / / / / / / / / / / / / / / / / / / : > : > > 9 J J Z B R B n n N e ",
"5 ; 9 & : 9 O - : ; - : + 4 - e / / / / / / / / / / / / / / / / / / / / / / / / / / / / / / / / e - 4 + : - ; : - O 9 : & 9 ; 5 "
};
