/* XPM */
static char *_013ae53c0a64926dfc695251d0bf970InB3pjgKUsgObYcp[] = {
/* columns rows colors chars-per-pixel */
"64 64 242 2 ",
"   c #1C150E",
".  c #1D1B15",
"X  c #1D1D1A",
"o  c #1B1718",
"O  c #241514",
"+  c #241B15",
"@  c #25151A",
"#  c #2A161D",
"$  c #241B1B",
"%  c #2B1B1C",
"&  c #291815",
"*  c #311C1D",
"=  c #291215",
"-  c #1B251A",
";  c #1C200F",
":  c #23221C",
">  c #27251C",
",  c #29321E",
"<  c #33211D",
"1  c #241D21",
"2  c #2C1C22",
"3  c #2B1622",
"4  c #301823",
"5  c #2C2C2C",
"6  c #292824",
"7  c #332D2B",
"8  c #362A2A",
"9  c #2C302A",
"0  c #352A31",
"q  c #2E2F33",
"w  c #1B2023",
"e  c #7A2C1D",
"r  c #7C321E",
"t  c #4E2B2A",
"y  c #542C2B",
"u  c #5A2C2C",
"i  c #532A25",
"p  c #4E332D",
"a  c #48392A",
"s  c #53322D",
"d  c #59332D",
"f  c #572B31",
"g  c #4D3632",
"h  c #4C3C34",
"j  c #4C3C3A",
"k  c #433D34",
"l  c #543533",
"z  c #5A3433",
"x  c #523C35",
"c  c #54363A",
"v  c #5B353B",
"b  c #543C3B",
"n  c #5A3C3C",
"m  c #593C36",
"M  c #4E2E33",
"N  c #7C2C23",
"B  c #7E2C2B",
"V  c #7D3223",
"C  c #793428",
"Z  c #61393B",
"A  c #793133",
"S  c #4D432F",
"D  c #4A4236",
"F  c #4D423B",
"G  c #454435",
"H  c #534235",
"J  c #53423C",
"K  c #5A423D",
"L  c #584535",
"P  c #52432C",
"I  c #6F4C3A",
"U  c #74493B",
"Y  c #7B4C3D",
"T  c #7B4739",
"R  c #7A523C",
"E  c #76533C",
"W  c #4C3E40",
"Q  c #553C41",
"!  c #5B3D43",
"~  c #5A3946",
"^  c #623B42",
"/  c #4D4442",
"(  c #554341",
")  c #5B4341",
"_  c #564949",
"`  c #4F5154",
"'  c #545357",
"]  c #7B4543",
"[  c #754B43",
"{  c #7C4C44",
"}  c #754B4A",
"|  c #7D4C4B",
" . c #774645",
".. c #7C5243",
"X. c #7C524C",
"o. c #765048",
"O. c #7B4B53",
"+. c #724E48",
"@. c #832C1D",
"#. c #85271C",
"$. c #81301E",
"%. c #832C23",
"&. c #8A2D25",
"*. c #852C2B",
"=. c #8B2C29",
"-. c #872525",
";. c #833424",
":. c #84322A",
">. c #873635",
",. c #8E2B32",
"<. c #BC3E2D",
"1. c #B93B28",
"2. c #B43E33",
"3. c #BA3D32",
"4. c #B93D3C",
"5. c #AF3E2E",
"6. c #C23C2A",
"7. c #C23D34",
"8. c #C13939",
"9. c #824B3E",
"0. c #85463E",
"q. c #81513D",
"w. c #B6452C",
"e. c #AE4639",
"r. c #B54333",
"t. c #BB4334",
"y. c #BB433A",
"u. c #B84939",
"i. c #C14236",
"p. c #C64229",
"a. c #834544",
"s. c #8B4642",
"d. c #834B44",
"f. c #8A4B44",
"g. c #8A454B",
"h. c #834C4A",
"j. c #8A4C4B",
"k. c #834549",
"l. c #92464B",
"z. c #825244",
"x. c #82524C",
"c. c #8A514C",
"v. c #8A5146",
"b. c #844C52",
"n. c #8A4C52",
"m. c #835351",
"M. c #8B5151",
"N. c #805850",
"B. c #914F54",
"V. c #BA4441",
"C. c #8D7E5D",
"Z. c #926C5F",
"A. c #9C6C6B",
"S. c #946D69",
"D. c #8E756B",
"F. c #8C7A6B",
"G. c #8D7565",
"H. c #94746C",
"J. c #9B746D",
"K. c #947A6E",
"L. c #9B7A6D",
"P. c #957965",
"I. c #9A6E71",
"U. c #8B7F7C",
"Y. c #8F7672",
"T. c #957473",
"R. c #9C7473",
"E. c #957A73",
"W. c #9B7A74",
"Q. c #9C757B",
"!. c #9D7B7A",
"~. c #947B7A",
"^. c #8E6F6A",
"/. c #A76D68",
"(. c #A3736C",
"). c #A47668",
"_. c #A27473",
"`. c #A27A74",
"'. c #A3757A",
"]. c #A27A7B",
"[. c #AA7676",
"{. c #DC766C",
"}. c #DA7C6C",
"|. c #D87A67",
" X c #CB7E72",
".X c #DC7573",
"XX c #DD7C72",
"oX c #DD767A",
"OX c #D77B7A",
"+X c #CC786D",
"@X c #E27B6D",
"#X c #E6746C",
"$X c #E37474",
"%X c #E37C73",
"&X c #EB7C74",
"*X c #E47A7B",
"=X c #E97779",
"-X c #F17B79",
";X c #7E817A",
":X c #84847D",
">X c #8C837B",
",X c #988173",
"<X c #AA8C7D",
"1X c #D6826D",
"2X c #D68279",
"3X c #CD8475",
"4X c #E28373",
"5X c #E5847C",
"6X c #E4836E",
"7X c #8E7E81",
"8X c #7D8285",
"9X c #878582",
"0X c #908686",
"qX c #AD8B8A",
"wX c #AE8D84",
"eX c #B58B85",
"rX c #BA878C",
"tX c #B48C8B",
"yX c #BB8D8D",
"uX c #B98985",
"iX c #AD9289",
"pX c #B39186",
"aX c #B3928B",
"sX c #BA928C",
"dX c #B79386",
"fX c #B48D93",
"gX c #BB8D92",
"hX c #B78A96",
"jX c #AC9594",
"kX c #B49392",
"lX c #BA9293",
"zX c #BA9997",
"xX c #AF8F92",
"cX c #9B9DAA",
"vX c #A99CAC",
"bX c #A89AB1",
"nX c #9EA1A9",
"mX c #A3A1A5",
"MX c #C68787",
"NX c #C28E94",
"BX c #FCFDFE",
"VX c #F7FFFD",
/* pixels */
"2 O : $ o 1 1 % + @ % > + 3 2 + % $ X + O 6 1 + % # @ : - 3 % + &.A *.N =.=.%.V $.%.%.;.e *.,.e *.%.V @.#.,.B $.B r r ,.B %.A *.",
"3 / b n ) h h h h _ b J x ( b J h b n K J c c x S h ) H l / Q & %.J K x h h n n h _ b H x ( b H x n n K L b b H v K H h m S s *.",
"& H o.s.s.h.x.x.{ { k.{ f.[ d.9.z.] B.Y U m.h.z.{ m.a.9.c.k.h ; %.p c.v.{ m.g.} h.| k.d.j.{ h.d...] n.U U b.k.d.h.| a.X.{ 0.H ;.",
"& m 0.u.t.t.<.7.t.y.7.y.7.u.2.y.6.2.3.r.r.y.3.2.i.t.3.r.4...z % ,.b k.V.4.e.w.w.t.u.7.y.7.u.2.r.p.r.3.u.u.u.t.r.w.r.i.4.4.X.~ *.",
"$ U.X.h.h.| } b.T { d.x.d.[ J.n e.`.{ z.k.] z.d.h.{ x.N.{ a.~.X r K.{ z.a.d.d.d.T { d.X.d.[ R.n e.`.] z.a.] d.d.h.{ f.f.R f.T.r ",
"# c (.{ ....z.9.c.h.{ | h./.| c 7.y _.Y g.h.z.| 9.z.Y { s.J.| 2 %.l W.Y k.X.o.s.x.d.{ | x./.| c 7.y _.[ g.b.z.| M.k.[ n.{ E.n.*.",
"+ y h.R.E.H.R.T.T._.E.T.W.2X| / r.h O.G.Q.T.P.E.T._.E.T.W..Xz.+ e d | L.`.T.J.E.H.(.E.T.J.2Xd.( w.x m.G.'.R.P.T.Y.R.,XT.E..Xx.e ",
". u n.T.~.Q.tXb n rX>XR.J.%XT J w.y g.P.Q.R.dXn J yXT.Q.J.2XY & =.p | _.T.T.NXx ! yXU.Q.J.*X0.J r.y g.P.Q.T.pXn Q yXF.Q.H.*Xd.&.",
"w y h.R.H.tXx 9 q h MX!.E.|.z.h e.u h.E.H.yXx 9 q h MXW.E.{.z.. C f h.K.T.tXb 9 q h MX!.E.|.z.h e.u h.E.H.yXx 9 q h MXW.E.|.R N ",
"& d d.J.aXJ 7 VXVX:Xh rXR.1Xh.n <.d { T.aX! 5 VXVX>Xj tXR.XXd.* @.u h.H.kXJ 5 VXVX:Xh rXR.1Xh.n <.d { T.aX! 5 VXVX9Xh rX_.1Xd.=.",
"2 y h.'.kXb 8 ` vX8X_ rX'.&X[ z i.f h.Q.kXb 7 ` bX9X_ fX!.=X[ = =.f b.R.lXb 8 ` vX8X_ rX'.&X[ z i.f h.Q.kXb 7 ` vX9X_ rX].=XU -.",
"X d Y L.iX<XH 6 , S <XaXH.1Xj.J r.z Y K.wXwXH , , P <XpXH.OXj.$ r z { P.aX<XJ , , S <XaXH.1Xj.J r.z Y K.wXwXH , , H <XdXH.1Xj.:.",
". s { _.].rXfX~ b gXlX(.E.%Xk.G w.z { R.].rXfX! b MXlXJ.K.$Xh.; r z { J.].rXhX! b gXlX(.E.%Xk.G w.z { R.].rXfX! b NXkX(.E.%Xa.C ",
"3 t | [.A.].aXqXgXqXT.(.J.%X| x 7.t | '.A.].iXqXkXtXQ.(.H.*Xh.+ -.M | _./.`.kXqXgXqXT.(.J.%X| x 7.t | '.A.].iXqXkXfXT.(.J.*X{ @.",
"% p /.2XOX|.|.&X|.4X#X1XOXC.b.n i.s /.MXXX}.}.&X|.6X=X1XOXP.b.% %.s /.3XXX|.}.&X|.4X#X1XOXC.b.n i.s /.MXXX}.}.&X|.5X#X1XOXC.b.=.",
"@ !.{ d.{ d.Y { f.} h.a.j.R Q.b 2.].{ | d.j.d.{ h.{ b.a.h.{ Q.$ N ].{ [ h.d.d.{ f.} h.a.j.R Q.b 2.].{ | d.f.d.{ f.| | a.j.[ T.%.",
"@ Q n c n ( b b J n n J j ! c J 2.Q m c n b J b J c ! n j ( v X N ! b x ! J Q b J n n J j ! v J 2.Q n c n b J b J b ^ J j J ~ V ",
": j J x K h x K D x J h x x K J u.j H x K h H K D x F x x D Z : V b x H ) h x K D x J h x j K J u.j H x K h H K D x J h x D ! r ",
"= !.{ x.h.{ h.d.j.x.] x.x.h.K.l 1.].{ b.h.] x.d.j.x.] h.X.x.T.O #.'.{ X.h.{ h.d.j.x.] x.x.h.K.l 1.].{ b.h.] x.d.j.x.a.x.m.z.T.#.",
"* t [.] { h.k.{ k.0.z.h.] (.[ ) y.y [. .Y h.d.d.h.>.X.j.] ).{ 6 &.u [.[ ] d.k.{ k.0.z.h. .(.[ ) y.y [. .Y h.d.d.k.0.h.h. .).| ;.",
"$ p } `.J.`.T.E.~.K.(.E.H.OX[ b r.p [ !.J._.J.E.E.K.J.R.H.2X{ @ V g [ E.R._.R.E.~.K.(.E.H.OX[ b r.p [ !.J._.J.E.E.K.(.W.H.2X| %.",
". z h.S.R.R.qX) W tXR.R.J.*Xf.b 5.z h.T.J.R.qX) j tXW.I.J.oXl.$ e v | H.R.R.qX( W tXR.R.J.*Xf.b 5.z h.T.J.R.qX) j tXR.R.R.XXl.%.",
"> y x.W.E.xXb 6 0 J tX~.W.{.E ( u.u h.E.E.fXb 5 8 J qXQ.L.{...6 ;.u h.E.R.aXQ 5 0 J tX~.W.{.E ( u.u h.E.E.fXb 5 8 J tXT.W.{.o.:.",
"+ u d.W.iXn 8 VXBX>XD kXJ.@XR c w.u d.W.iXn 8 VXBX>XD fXJ.XXY @ $.u { K.iXn 8 VXBX>XD kXJ.@XR c w.u d.W.iXn 8 VXBX:Xj xXR.}...@.",
"& l | J.aX! 0 ` cX9XD hXR.$XY Q t.l o.J.gXb 5 ' mX:X/ hXJ.$Xz.1 %.l | J.tXn 0 ' cX9XD hXR.$XY Q t.l o.J.gXb 5 ' nX;X/ fXR.#Xh.*.",
"$ z a.(.dXyXJ - 6 H uXaXJ.-X..W r.u h.J.sXeXH , 6 L eXyX(.%X{ o V z a.(.dXpXJ , 6 H uXaXJ.-X..W r.u h.J.sXeXH , 6 L uXdX_.%X{ N ",
"$ y m.K.Y.tXfX( Q lXsXT.L. Xz.c r.u x.E.Y.uXfXQ ! uXlXH.G.3Xf.$ @.t m.K.T.qXfX( Q lXsXT.L. Xz.c r.u x.E.Y.uXfXQ ! eXNXD.H.3Xf.;.",
"= n [ J.W.T.lXyXgXeXD.E.F.=X..K 7.z [ K.R.`.tXgXgXyXF.`.,X=XU % #.b [ J.W.H.lXyXgXeXD.E.F.=X..K 7.z [ K.R.`.tXgXgXsXK.W.,X=X[ @.",
"$ l /.2X.X%X%X@XXX}.&X*X*X(. .Z 3.p /.OX*X|.4X#X}.{.=X*X+X).j.% %.l /.OX$X%X%X#XXX}.&X*X*X(. .Z 3.p /.OX*X|.4X#X}.|.-XOXOX).n.%.",
"$ T.| d.{ v.T E z.R U a.| k.>XJ i.E.X.{ j.R I R 9.....a.x.] ~.X %.Y.h.d.d.q.T R z.R U a.| k.>XJ i.E.X.{ j.R I R 9...d.d.m.d.~.N ",
"+ % % + $ $ % $ # $ - = * X $ x 3.h & $ $ + 1 # @ 4 X O >   n X @.% <   $ . % % # $ - = * X : x 3.h & $ $ + 1 # @ 2 $ + 6   ! V ",
"1 : . % % 1 X % % @ % > O X % n y.F O % # $ $ # : $ % $ + $ v $ *.X X # 2 X $ % % @ % > O X % n y.F O % # $ $ # : @ * : $ + ~ ;.",
"$ A.x.o.| f.9.h.a.d.{ k.| E I.( r.R.d.X.{ j.a.d.h.z.{ { | ..I.1 V R.h.X.| f.a.h.a.d.{ k.| E I.( r.R.d.X.{ j.a.d.d.h.{ { O...J.:.",
"$ d J.| ] x.[ h.o.{ j.h.} ).b.c t.l (.| ] m.[ h.o.Y n.h.} ).| O %.l J.o.] x.[ h.o.{ j.h.} ).b.c t.l (.| ] m.[ h.[ { c.h.} ).x.-.",
"@ l [ J.[.S.D.].T.R.A.R._. XB.x 3.l [ R.`.S.H.R.T.(.I.J._.3XM.$ %.z [ J.[.Z.H.!.T.R.A.R._. XB.x 3.l [ R.`.S.H.R.H.'.J.J._. Xc.N ",
"$ d | W.!.R.jXj n xXT.!.R.{.g.F r.f d.!.W.R.kXj Q iXT.W.R..Xs.: V f { W.].J.kXj n xXT.!.R.{.g.F r.f d.!.W.R.kXj n xXY.E.'..Xs.V ",
"$ y | H.H.aXF 0 5 b lXH.E.4Xa.H r.y d.T.D.aXJ 7 5 x lXH.E.5Xa.+ V y { H.T.aXn 7 5 b lXH.E.4Xa.H r.y d.T.D.aXJ 7 5 b kXD.W.5X9.V ",
"% s | R.lXb 7 BXBXU.n aXE.|.h.J y.s { '.sXb 7 BXBXU.! aXE.{.h.: :.s [ W.gXx 8 BXBXU.n aXE.|.h.J y.s { '.sXb 7 BXVX7Xn aXE.{.d.;.",
"$ l ..A.yXx 9 ' mX0Xg pXH.&Xk.h <.l { R.tXb 8 ' vX0Xc pXH.-X{ . %.l [ J.yXx 8 ' mX0Xg pXH.&Xk.h <.l { R.tXb 8 ' jX0Xh pXH.-X{ e ",
"$ u d.R.tXkXF 5 5 j lXyXE.}.| K r.u h.R.aXkX( 5 5 D lXuXL.XX[ * V u d.W.tXaX( 5 5 j lXyXE.}.| K r.u h.R.aXkX( 5 5 j lXuXE.XXo.&.",
"& d | J.W.gXtXb H rXlXH.P.oXj.x i.s | J.W.sXtXn J tXlXT.P.oXj.+ &.d | J.R.lXeXb H rXlXH.P.oXj.x i.s | J.W.sXtXn J uXkXT.P.oXf.N ",
"$ l | R.K.D.aXdXsXyXD.W.`.OX| n y.p | R.E.F.aXsXyXdXD.R.W.OX| % %.p O.L.K.F.aXaXsXyXD.W.`.OX| n y.p | R.E.F.aXsXyXdXD.R.,XOXd.*.",
"+ a ).2X.X$X*X.X.X=X*XoX.XL.h.F t.a ).OXoX$X*X$X.X%X*XoX.XL.d.: %.a _.2X$X*X*X.X.X=X*XoX.XL.h.F t.a ).OXoX$X*X$X.X=X*XoX.XL.d.V ",
": H.d.0.f.9.q.R R R { f.0...G.J y.D.d.s.f.q.q.Y ..E Y s.a...G.+ ;.H.{ 0.f...q.Y R R { f.0...G.J y.D.d.s.f.q.q.Y ..R Y s.9...G.N ",
"1 ! n F k J n J b b n ) D z ( ~ 4.n n x k J n J ! F x ) F v ( 3 *.Q ! F k / b ( b b n ) D z ( ~ 4.n n x k F b J Q H x ) G v K ,.",
"@ ! n D J n v j b n v h J ( c n 3.n n j ( n v j Q x n j ( J l 3 -.! Q D ( n v j b n v h J ( c n 3.n n j ( n v j Q n v j F J z =.",
"> ^.M.h.U h.a.c.d.x.{ x.] j.F.D u.G.M.j. .d.d.M.k.X.d.x. .j.F.: ;.D.M.f.] x.d.M.d.x.{ x.] j.F.D u.G.M.j. .d.d.M.k.z.{ x.[ j.F.V ",
"O x S.{ d.x.{ { d.z.9.[ l.D.b.x 3.x S.h.h.z.{ { h...Y [ l.E.n.+ #.x H.d.h.X.{ { d.z.9.[ l.D.b.x 3.x S.h.h.z.{ { k.z.T { g.E.j.N ",
"% y [ E.'.H.W.T.`.H.J.R.T.}.{ n 3.s { T.`.H.W.J.W.J.L.R.T.}.d.& %.s Y R.].H.K.J.`.H.J.R.T.}.{ n 3.s { T.`.H.W.J.W.H.R.W.T.}.Y -.",
"$ d h.Y.T.W.aXj h zXR.T.E.@Xd.( r.z j.E.H.!.kXx h zXR.T.E.@Xk.> %.z d.T.T.!.aXx h zXR.T.E.@Xd.( r.z j.E.H.!.kXx h zXR.T.E.%X9.:.",
"6 i j.E.T.qXb 5 7 j qXW.E.@Xh.j u.i j.E.J.qXb 5 5 b qXW.E.@Xh.. :.i f.E.T.qXh 7 7 j qXW.E.@Xh.j u.i j.E.J.qXb 5 5 j qXE.W.{.d.N ",
"$ y { W.gXJ 7 VXBX:XK gXR.|.x.c y.s d.R.sXJ 7 BXVXU.K yXR.}.h.@ :.l 9.'.gXK 6 BXBX:XK gXR.|.x.c y.s d.R.sXJ 7 BXBX:X) aX'.}.z.%.",
"@ z { H.rXx 8 ' mX:Xh tXJ.6X| ( 3.l d.J.eXx 7 ' nXU.x tXA.4Xk.1 %.l d.R.tXb 9 ' mX:Xh tXJ.6X| ( 3.l d.J.eXx 7 ' mX:Xx tXI.1X..*.",
"X i h.D.lXlXc 7 7 J kXkXT.@Xh.j r.y j.T.sXkXc 7 5 n kXkXT.@Xj.. N y f.T.lXlXh 7 7 J kXkXT.@Xh.j r.y j.T.sXkXc 7 5 ( lXkXR.{.d.N ",
": d d.E.I.tXlXb b aXtXT.E.@Xa.( t.z d.E.H.tXlXb x tXtXT.E.4Xa.: :.z 9.!.H.tXaXb b aXtXT.~.%Xa.( t.z d.E.H.tXlXb x tXtXT.W.%X9.:.",
"& y | E._.W.eXgXyXpXJ.R.W.|.x.n <.t X.T._.W.eXyXlXeXW.R.E.}.h.& %.t ..R.R.`.wXyXNXpXJ.R.W.|.x.n <.t X.T._.W.eXyXyXtXR.R.Q.}.z.-.",
"4 M (.2X}.}.@X#X@X{.%X}.2X/.[ m 6.g R.}.%X=X1X%X@X{.4X1X3X/.O.3 =.a J..XXXXX@X%X@X@X%X}.2X/.[ m <.g R.}.%X*X1X%X{.@X=X.X5XJ.| ;.",
". ,X[ { k.h.h.} { x.] c.] X.!.n u.Q.O.d.[ d...h.| m.] h.] o.F.> #.W.} d.d.a.{ [ Y z.T c.] X.,Xx u.Q.O.9.[ { R h.o.T s.x.U M.W.#.",
"  n n ) j b b h J J x x b x x h t.b ( L x ( G n x x n n n b J O *.n F H h x F b ( J x x b x x j 3.n Q L b ) h n ( J x D J ! j ,.",
"% j x b n ( h ) n b n x K n l ) u.h ( s n n x n x b n b b x F $ C c n H J ^ c Q b b b x J J h K u.h ( s n n x n W v c / Z j h V ",
"@ n f.e.t.r.r.1.4.y.y.y.2.2.V.2.6.y.4.y.V.y.t.y.w.t.t.u.e.s.Z % N L f.y.r.w.w.w.3.t.r.t.r.r.u.2.1.u.r.u.u.y.r.t.w.w.w.2.8.x.H %.",
"- x x.9.f.s.g.b.Y Y [ z.z.h.{ h.9.{ { x.{ d.Y ..b.k.a.s.f.[ x @ %.x | s.x.a.a.| d.d.d.h.h.j.k.j.a.k.k.j.a.h.{ x.b.] M.j.f.n.g &.",
"1 Q b J k ( n b J J x x g b ) b v ( D b n n ( j b ( j ( h x _ @ V ( h L k ( J Q J J h x g x K x l J G h n x J k v ( j j h b F N ",
"& & & @ 1 X X & $ % $ $ $ >   : 6 O % 6 o & 3 # & $ 1 @ $ %   : @.B *.r ;.#.@.V *.*.*.*.%.:.e ;.A #.&.:.e %.=.*.V @.#.V %.B *.@."
};
