/* XPM */
static char *result[] = {
/* columns rows colors chars-per-pixel */
"64 64 116 2 ",
"   c #17190E",
".  c #1C1B0D",
"X  c #171717",
"o  c #1D1513",
"O  c #171A12",
"+  c #1C1C15",
"@  c #1E161B",
"#  c #1E1B1A",
"$  c #24180C",
"%  c #260F17",
"&  c #231615",
"*  c #2A1516",
"=  c #231A16",
"-  c #2A1B16",
";  c #23161A",
":  c #2B161C",
">  c #241B1B",
",  c #2A1C1C",
"<  c #301615",
"1  c #31161F",
"2  c #301D1E",
"3  c #1E2515",
"4  c #17201B",
"5  c #1C221C",
"6  c #222014",
"7  c #24211C",
"8  c #2A201D",
"9  c #1D1B20",
"0  c #2B1722",
"q  c #251B22",
"w  c #2A1C21",
"e  c #2C1A28",
"r  c #341527",
"t  c #301B20",
"y  c #351D2B",
"u  c #1D2321",
"i  c #232123",
"p  c #2C2223",
"a  c #45392D",
"s  c #4C3F36",
"d  c #4B3D3A",
"f  c #523C36",
"g  c #553E39",
"h  c #5D393B",
"j  c #63343C",
"k  c #623C3E",
"l  c #464034",
"z  c #4E4737",
"x  c #44453D",
"c  c #4B403A",
"v  c #55433D",
"b  c #5B433E",
"n  c #6B5838",
"m  c #735539",
"M  c #624340",
"N  c #734442",
"B  c #7C4546",
"V  c #7C4C43",
"C  c #7E4E4A",
"Z  c #7E5553",
"A  c #83473C",
"S  c #83493E",
"D  c #8B3F41",
"F  c #B13D46",
"G  c #BC3E41",
"H  c #C03B40",
"J  c #804645",
"K  c #8C4243",
"L  c #814B41",
"P  c #884B45",
"I  c #834C49",
"U  c #904542",
"Y  c #835446",
"T  c #83524E",
"R  c #875151",
"E  c #8F7469",
"W  c #837C6C",
"Q  c #957465",
"!  c #93756B",
"~  c #9B736F",
"^  c #977B6D",
"/  c #99796A",
"(  c #8F7773",
")  c #8E7974",
"_  c #8B7578",
"`  c #8C7E78",
"'  c #947572",
"]  c #9D7372",
"[  c #967A75",
"{  c #9B7A72",
"}  c #9E7178",
"|  c #957B7A",
" . c #9F7C7A",
".. c #A26C6C",
"X. c #A67267",
"o. c #A77775",
"O. c #D97E7C",
"+. c #E1766C",
"@. c #808277",
"#. c #8E8077",
"$. c #94837C",
"%. c #CE817B",
"&. c #E5817F",
"*. c #DE7681",
"=. c #DF7A80",
"-. c #8B8788",
";. c #AF8E85",
":. c #AC8A8A",
">. c #B58D85",
",. c #A89587",
"<. c #AE938D",
"1. c #BA9582",
"2. c #B9908E",
"3. c #B39690",
"4. c #B69B94",
"5. c #D18383",
/* pixels */
"; 7 9 0 & > @ , > , > X X X X X X X X X X X X X X X X X X X X X X X X X X X X X X X X X X X X X X X X X X ; > , , @ > > q 9 > ; ",
"> $ b : 3 7 w > > > > X X X X X X X X X X X X X X X X X X X X X X X X X X X X X X X X X X X X X X X X X X # > > > w 7 3 : b $ > ",
"7 A L = 5 * = * : > > X X X X X X X X X X X X X X X X X X X X X X X X X X X X X X X X X X X X X X X X X X > > > * > = # > S S > ",
"> H G - u > > > > > = X X X X X X X X X X X X X X X X X X X X X X X X X X X X X X X X X X X X X X X X X X > , , = 7 * u - G H q ",
": m n > 0 , > > > > > X X X X X X X X X X X X X X X X X X X X X X X X X X X X X X X X X X X X X X X X X X q > > > q : q 7 n m : ",
"0 P L , ; , q > > > > X X X X X X X X X X X X X X X X X X X X X X X X X X X X X X X X X X X X X X X X X X 7 > , > ; , ; , L P : ",
", N ] , * , i & > > > X X X X X X X X X X X X X X X X X X X X X X X X X X X X X X X X X X X X X X X X X X # > > & i 8 - w } N - ",
"- #.| 1 + 3 ; 7 , > 9 X X X X X X X X X X X X X X X X X X X X X X X X X X X X X X X X X X X X X X X X X X > > > 7 ; 6 6 : | #.- ",
", ] :.w = - 0 > > > # X X X X X X X X X X X X X X X X X X X X X X X X X X X X X X X X X X X X X X X X X X ; , > > 0 - = p :.~ , ",
"5 [ k ; 3 + > ; > , > X X X X X X X X X X X X X X X X X X X X X X X X X X X X X X X X X X X X X X X X X X > > > ; > + 6 ; k { # ",
"> W @.q , - + w > > > X X X X X X X X X X X X X X X X X X X X X X X X X X X X X X X X X X X X X X X X X X > , > p # > - i @.W > ",
": o.k ; > - > 5 > , > X X X X X X X X X X X X X X X X X X X X X X X X X X X X X X X X X X X X X X X X X X > > > # > - > ; k o.: ",
", E <.0 & , > > > > # X X X X X X X X X X X X X X X X X X X X X X X X X X X X X X X X X X X X X X X X X X # > , , # , & 0 <.E q ",
", ^ ,.> & , q * > > > X X X X X X X X X X X X X X X X X X X X X X X X X X X X X X X X X X X X X X X X X X > > > > q * - > ,.^ , ",
"* O.=.: 5 w ; 7 > , > X X X X X X X X X X X X X X X X X X X X X X X X X X X X X X X X X X X X X X X X X X > > > 7 % 1 5 * *.=.* ",
"> L S 8 + @ w & > > > X X X X X X X X X X X X X X X X X X X X X X X X X X X X X X X X X X X X X X X X X X = , > o p + 4 2 L L 5 ",
", f s > 0 & = > , > > X X X X X X X X X X X X X X X X X X X X X X X X X X X X X X X X X X X X X X X X X X # > > q > > , ; s f , ",
"> M g > > , p ; > > > X X X X X X X X X X X X X X X X X X X X X X X X X X X X X X X X X X X X X X X X X X > > > > 8 , ; > v b > ",
"> N Z = > & > 7 > > > X X X X X X X X X X X X X X X X X X X X X X X X X X X X X X X X X X X X X X X X X X > > * q > & # = R N > ",
"> T B , 7 , , # > > > X X X X X X X X X X X X X X X X X X X X X X X X X X X X X X X X X X X X X X X X X X > > > # , - 7 p B I , ",
"= R ..= u & > i , > = X X X X X X X X X X X X X X X X X X X X X X X X X X X X X X X X X X X X X X X X X X # > , i > & > = ..R = ",
"= ] ] p ; , , ; > > > X X X X X X X X X X X X X X X X X X X X X X X X X X X X X X X X X X X X X X X X X X > > , @ , , q 8 ] ] = ",
"> [ <.= q * = > > > # X X X X X X X X X X X X X X X X X X X X X X X X X X X X X X X X X X X X X X X X X X # > > > > & > > <.[ > ",
"> ' $.O 0 , 7 > > > q X X X X X X X X X X X X X X X X X X X X X X X X X X X X X X X X X X X X X X X X X X # > > > 7 , q + $.( , ",
"= _ -.7 + * > > > > > X X X X X X X X X X X X X X X X X X X X X X X X X X X X X X X X X X X X X X X X X X > > , > = * + > -._ = ",
"7 } j : u & , > > , > X X X X X X X X X X X X X X X X X X X X X X X X X X X X X X X X X X X X X X X X X X > > > q , & 5 , j } > ",
"; [ ;., q # , & > > > X X X X X X X X X X X X X X X X X X X X X X X X X X X X X X X X X X X X X X X X X X > > > ; 8 > q , >.$.& ",
"> Q 1.6 e = 6 , , > # X X X X X X X X X X X X X X X X X X X X X X X X X X X X X X X X X X X X X X X X X X > , > > > = e = 1.Q > ",
"> 5.O.6 ; = = > > > > X X X X X X X X X X X X X X X X X X X X X X X X X X X X X X X X X X X X X X X X X X > > > > $ > ; 3 O.O.> ",
"> U P   p 8 = > , > > X X X X X X X X X X X X X X X X X X X X X X X X X X X X X X X X X X X X X X X X X X > > > 7 = 8 p   P D > ",
"> - 7 = ; & > > > > ; X X X X X X X X X X X X X X X X X X X X X X X X X X X X X X X X X X X X X X X X X X ; > , > > & & = 7 , = ",
"> @ 0 1 5 > > q > , > X X X X X X X X X X X X X X X X X X X X X X X X X X X X X X X X X X X X X X X X X X > > > q > > 5 1 q @ > ",
", C m - > > > = > > # X X X X X X X X X X X X X X X X X X X X X X X X X X X X X X X X X X X X X X X X X X # > , = > ; q - m I , ",
"& I V - ; , = p > > > X X X X X X X X X X X X X X X X X X X X X X X X X X X X X X X X X X X X X X X X X X > > > 8 & > > - V C & ",
", ] ~ 8 ; q = o > , q X X X X X X X X X X X X X X X X X X X X X X X X X X X X X X X X X X X X X X X X X X > , > o = w > - { ] , ",
"> ' <.= q > 8 w > > > X X X X X X X X X X X X X X X X X X X X X X X X X X X X X X X X X X X X X X X X X X > > > w 8 > q > :.' > ",
"* [ v > @ 8 = ; , > > X X X X X X X X X X X X X X X X X X X X X X X X X X X X X X X X X X X X X X X X X X > , > & = p ; > b | ; ",
"w | ` ; , = + , > > = X X X X X X X X X X X X X X X X X X X X X X X X X X X X X X X X X X X X X X X X X X # > > 0 + = > > ` | w ",
"& $.#.# , = 7 ; > > > X X X X X X X X X X X X X X X X X X X X X X X X X X X X X X X X X X X X X X X X X X 7 > > ; 7 = , > ` $.& ",
", ) c w , = > e > > > X X X X X X X X X X X X X X X X X X X X X X X X X X X X X X X X X X X X X X X X X X q > > : 7 = , > d ( - ",
"0 ! 2., = > , & > * > X X X X X X X X X X X X X X X X X X X X X X X X X X X X X X X X X X X X X X X X X X > > > + : , & , 2.! 0 ",
"& / >.= , + q , > > # X X X X X X X X X X X X X X X X X X X X X X X X X X X X X X X X X X X X X X X X X X ; , > w > O 8 > >./ = ",
"- %.5.* > > p o , > ; X X X X X X X X X X X X X X X X X X X X X X X X X X X X X X X X X X X X X X X X X X > > , o i 7 * * 5.%.- ",
"* U D , , = ; 7 > > 7 X X X X X X X X X X X X X X X X X X X X X X X X X X X X X X X X X X X X X X X X X X # > , 8 ; > , > D U * ",
"q z g > & i > * & , > X X X X X X X X X X X X X X X X X X X X X X X X X X X X X X X X X X X X X X X X X X # > > & , i & 7 f z q ",
"9 a v q > = , = > > # X X X X X X X X X X X X X X X X X X X X X X X X X X X X X X X X X X X X X X X X X X > > > & , > > > v l q ",
"e T B > , > , = > > > X X X X X X X X X X X X X X X X X X X X X X X X X X X X X X X X X X X X X X X X X X 7 = * 6 , > > > B R q ",
"# X.P > > 5 # - = w i X X X X X X X X X X X X X X X X X X X X X X X X X X X X X X X X X X X X X X X X X X > > : , # # > > I X.+ ",
"> ~ [ > > & > * = > 7 X X X X X X X X X X X X X X X X X X X X X X X X X X X X X X X X X X X X X X X X X X # > > > > = > , [ ~ , ",
"> ' 4.o > > 7 > > > # X X X X X X X X X X X X X X X X X X X X X X X X X X X X X X X X X X X X X X X X X X i 8 > * > > , o 3.' = ",
"= [ f 8 * > > > , * # X X X X X X X X X X X X X X X X X X X X X X X X X X X X X X X X X X X X X X X X X X > & = > = > ; p g [ = ",
"q [ [ > > > o w > > q X X X X X X X X X X X X X X X X X X X X X X X X X X X X X X X X X X X X X X X X X X ; > w p o > > > | [ > ",
"> [ b = @ , > > > , > X X X X X X X X X X X X X X X X X X X X X X X X X X X X X X X X X X X X X X X X X X i = & ; > p ; = v ' > ",
"& [ :.> p * > > > & # X X X X X X X X X X X X X X X X X X X X X X X X X X X X X X X X X X X X X X X X X X > , > > = = p > :.[ & ",
"* o.3.; > & = > & > p X X X X X X X X X X X X X X X X X X X X X X X X X X X X X X X X X X X X X X X X X X X p & > = & & * 3. .* ",
"> ' <., > > = > , > # X X X X X X X X X X X X X X X X X X X X X X X X X X X X X X X X X X X X X X X X X X > > > > = , > , :.' , ",
"& &.+.. e q + = > > > X X X X X X X X X X X X X X X X X X X X X X X X X X X X X X X X X X X X X X X X X X # > > 7 = q e   +.&.& ",
"7 J Y 6 : ; t > > = # X X X X X X X X X X X X X X X X X X X X X X X X X X X X X X X X X X X X X X X X X X = , = , w ; , 8 Y B 3 ",
"= x d & 7 > 4 : > p > X X X X X X X X X X X X X X X X X X X X X X X X X X X X X X X X X X X X X X X X X X q = p * # 7 , & s x > ",
"- h v , , > * 5 * + > X X X X X X X X X X X X X X X X X X X X X X X X X X X X X X X X X X X X X X X X X X = + * 5 & # , - v h - ",
"# K F - i = > , , > # X X X X X X X X X X X X X X X X X X X X X X X X X X X X X X X X X X X X X X X X X X # , > 1 * > 9 * F K 5 ",
"> V Y O r > < # = > > X X X X X X X X X X X X X X X X X X X X X X X X X X X X X X X X X X X X X X X X X X > > = # * 7 r O Y m > ",
", 3 a 7 , X 7 > > > > X X X X X X X X X X X X X X X X X X X X X X X X X X X X X X X X X X X X X X X X X X # 7 * > 7 + : 7 a > , ",
"> @ y 1 = 3 - = * , > X X X X X X X X X X X X X X X X X X X X X X X X X X X X X X X X X X X X X X X X X X > , 7 > * 6 = : y ; , "
};
