/* XPM */
static char *result[] = {
/* columns rows colors chars-per-pixel */
"64 64 185 2 ",
"   c #0E0E0E",
".  c #1F160D",
"X  c #171717",
"o  c #1D1715",
"O  c #1E1B15",
"+  c #1B1718",
"@  c #1D1D19",
"#  c #161815",
"$  c #261700",
"%  c #231615",
"&  c #2A1516",
"*  c #231A15",
"=  c #2B1B15",
"-  c #24171A",
";  c #2C161B",
":  c #241C1A",
">  c #2A1B1B",
",  c #301410",
"<  c #31151D",
"1  c #331A1B",
"2  c #331A15",
"3  c #1D200F",
"4  c #1B2116",
"5  c #1C221A",
"6  c #172218",
"7  c #25230E",
"8  c #242114",
"9  c #24211C",
"0  c #28201E",
"q  c #282516",
"w  c #1E1C21",
"e  c #2C1621",
"r  c #241B21",
"t  c #2A1C21",
"y  c #1A2325",
"u  c #262323",
"i  c #2B2322",
"p  c #2D2E2B",
"a  c #2C2C22",
"s  c #322B2C",
"d  c #2D3027",
"f  c #27312B",
"g  c #282D30",
"h  c #262E31",
"j  c #383428",
"k  c #533E2B",
"l  c #4D3B35",
"z  c #4C3C3B",
"x  c #443E32",
"c  c #533635",
"v  c #543B35",
"b  c #593D35",
"n  c #54353D",
"m  c #5B343C",
"M  c #533C3B",
"N  c #5B3C3B",
"B  c #5C3234",
"V  c #673C39",
"C  c #4C482F",
"Z  c #55452C",
"A  c #454237",
"S  c #4D4335",
"D  c #4D433A",
"F  c #534135",
"G  c #52423A",
"H  c #59423D",
"J  c #5E4237",
"K  c #61443E",
"L  c #7A4A3C",
"P  c #7D4A37",
"I  c #7C533F",
"U  c #4D3B43",
"Y  c #533E43",
"T  c #5B3B43",
"R  c #503546",
"E  c #4F4140",
"W  c #534342",
"Q  c #5A4342",
"!  c #57424B",
"~  c #614448",
"^  c #734641",
"/  c #734B44",
"(  c #7D4B44",
")  c #7B4D4A",
"_  c #7B474B",
"`  c #7C5041",
"'  c #7C524B",
"]  c #7C4E51",
"[  c #7F7F73",
"{  c #B63C2D",
"}  c #B93A37",
"|  c #C53F36",
" . c #83463C",
".. c #834A3E",
"X. c #B64235",
"o. c #BE4435",
"O. c #B24637",
"+. c #C4403C",
"@. c #AE3F46",
"#. c #B93944",
"$. c #C33C40",
"%. c #814644",
"&. c #834B43",
"*. c #8C4B43",
"=. c #85474C",
"-. c #854C4B",
";. c #8C4C4D",
":. c #8B4641",
">. c #99464E",
",. c #825145",
"<. c #82524D",
"1. c #834B51",
"2. c #825351",
"3. c #B94049",
"4. c #8E756E",
"5. c #8F796E",
"6. c #93746C",
"7. c #9A746D",
"8. c #94796E",
"9. c #9A7A6D",
"0. c #9B6E71",
"q. c #9B6E75",
"w. c #8B7573",
"e. c #867B76",
"r. c #8E7D73",
"t. c #957473",
"y. c #9B7473",
"u. c #947974",
"i. c #997A74",
"p. c #92767A",
"a. c #9D757A",
"s. c #947B7B",
"d. c #9C7B7B",
"f. c #A26B6E",
"g. c #A3726E",
"h. c #A36D76",
"j. c #A27576",
"k. c #A47973",
"l. c #A1747B",
"z. c #A27A7C",
"x. c #C54748",
"c. c #DD7D6D",
"v. c #D87A61",
"b. c #CE7D75",
"n. c #DE7778",
"m. c #D37B7C",
"M. c #DC7D7A",
"N. c #EB756D",
"B. c #EC7772",
"V. c #E87B75",
"C. c #7F8577",
"Z. c #7B8979",
"A. c #8E8478",
"S. c #978176",
"D. c #9E8076",
"F. c #93827B",
"G. c #9C837C",
"H. c #CF816B",
"J. c #DA846D",
"K. c #DA8276",
"L. c #E38168",
"P. c #9E7A81",
"I. c #D77782",
"U. c #898581",
"Y. c #9A8482",
"T. c #AF868C",
"R. c #AB8D88",
"E. c #B38B86",
"W. c #BB8C84",
"Q. c #B48D8B",
"!. c #BC8C8C",
"~. c #B88582",
"^. c #AD9088",
"/. c #A99386",
"(. c #B59283",
"). c #B4928B",
"_. c #B48B93",
"`. c #BD8E92",
"'. c #BA9194",
"]. c #B29492",
"[. c #C68780",
"{. c #C88A8B",
"}. c #D28383",
"|. c #D18882",
" X c #C1908C",
/* pixels */
"w * = 1 - 5 8 % : t - t > > 4 * X X X X X X X X X X X X X X X X X X X X X X X X X X X X X X X X - 5 > : t r e : - = 5 - ; 2 * w ",
"t n v W T A N Q S M @ : % ; : > X X X X X X X X X X X X X X X X X X X X X X X X X X X X X X X X ; 9 ; % - 4 M F W N A T W v n r ",
"0 <.( / ..,.&._ P &.4 9 : : > ; X X X X X X X X X X X X X X X X X X X X X X X X X X X X X X X X ; & : : 0 3 %.L ( &.,.&./ ` <.> ",
"$ { O.+.X.+.{ | $.#.= = @ @ ; : X X X X X X X X X X X X X X X X X X X X X X X X X X X X X X X X : : 5 : : 2 #.| +.{ o.X.+.O.} $ ",
": ) &.&...#.` -.` ( 6 - > - : 6 X X X X X X X X X X X X X X X X X X X X X X X X X X X X X X X X 5 : - > - 6 &.I -.` #.:...,.' : ",
": ;.( ' <.k -./ -.=.: t r > > : X X X X X X X X X X X X X X X X X X X X X X X X X X X X X X X X % > : > - : =.-.) &.k ' ' L ;.: ",
"; _ 7.i.0.D ( i.7.y.> - : % : ; X X X X X X X X X X X X X X X X X X X X X X X X X X X X X X X X ; : - : : > y.t.d.^ S 0.i.g._ ; ",
": A.7.7.a.b u.y.u.d.% : 9 : 5 t X X X X X X X X X X X X X X X X X X X X X X X X X X X X X X X X t 5 : 9 - : d.u.y.i.v d.t.7.A.: ",
"- i.^. Xy.Y u.(.^.p.: : * 8 : t X X X X X X X X X X X X X X X X X X X X X X X X X X X X X X X X > > 9 * : : p.R.).8.Y y. X^.i.: ",
": t.M D y.W 5.n N d.: - 0 O > - X X X X X X X X X X X X X X X X X X X X X X X X X X X X X X X X : % O 0 * : d.N v 4.W y.S n t.: ",
"= d.p Z.u.N u.s s.w.: : : i % - X X X X X X X X X X X X X X X X X X X X X X X X X X X X X X X X - % i : > : w.d.s u.N u.Z.g d.= ",
"e y.n b p.n z.c v d.: - > * * : X X X X X X X X X X X X X X X X X X X X X X X X X X X X X X X X : : O > : - s.v c l.n s.b M y.e ",
"O 9.Q.{.8.D 8.`.E.d.O : - : * : X X X X X X X X X X X X X X X X X X X X X X X X X X X X X X X X : > - * : o d.Q.'.5.S 9.{._.7.O ",
"= 9.!.Q.m.v 9.R.W.y.: r - : > 9 X X X X X X X X X X X X X X X X X X X X X X X X X X X X X X X X 9 > - % u : 7.W.T.9.b m.).`.7.= ",
"y M.K.B.i.R i.V.[.g.= O 9 : > O X X X X X X X X X X X X X X X X X X X X X X X X X X X X X X X X O > 9 r O : y.K.V.i.R y.B.K.M.y ",
"; ( *.L -.Q &.&.*.( 0 : - - = > X X X X X X X X X X X X X X X X X X X X X X X X X X X X X X X X > ; * : : : ( *.&.&.Q ' L *.` & ",
"@ N T n H W v T G N - 9 % 5 - @ X X X X X X X X X X X X X X X X X X X X X X X X X X X X X X X X 5 : 5 % : @ N G T v G H n T T @ ",
"@ b z G J l v D F N @ : ; : : > # X X X X X X X X X X X X X X X X X X X X X X X X X X X X X X X ; > : ; : : T F S v z b S z b @ ",
"* &.<.( / n ' ( ) ] > : ; : - 0 # X X X X X X X X X X X X X X X X X X X X X X X X X X X X X X X i - : = : > ) ' ) ` N / ) -.&.> ",
": -.-.( d.G 7.&.) -.% * 0 9 @ - # X X X X X X X X X X X X X X X X X X X X X X X X X X X X X X X - @ 9 > : % 1._ &.7.Y d.( -.,.: ",
"e L 7.7.y.T ^ k.i.0.= @ = : : e X X X X X X X X X X X X X X X X X X X X X X X X X X X X X X X X > : : = @ 9 t.7.k.^ T y.9.6.V 1 ",
"O y.Y.u.d.M u.u.i.t.@ @ : 9 : - X X X # X X X X X X X X X X X X X X X X X X X X X X X X X X X X : : 9 > @ O 7.i.u.u.M d.6.R.i.- ",
"- l.T._.t.T i._.R.z.: : * O 9 9 X X X X X X X X X X X X X X X X X X X X X X X X X X X X X X X X - 9 @ % - : P.R.].y.T t._.T.j.- ",
": u.p A.8.N 5.p A.p.O t ; : ; > X X X X X X X X X X X X X X X X X X X X X X X X X X X X X X X X ; > : ; 9 O p.F.s 5.M u.A.p s.= ",
"* P.g U.d.S q.p A.s.- * > @ : - X X X X X X X X X X X X X X X X X X X X X X X X X X X X X X X X r : @ ; % % s.C.p a.F d.P.h P.O ",
"4 u.v B S.z i.M M a.- u % : > ; X X X X X X X X X X X X X X X X X X X X X X X X X X X X X X X X ; : * % u r a.V G y.z S.c S u.O ",
"> t./.(.p.M p.Q.Q.a.- r : : * 0 X X X X X X X X X X X X X X X X X X X X X X X X X X X X X X #   9 : : : r + y.Q.Q.p.M p.(./.t.- ",
"2 l.!.).n.V 8._.(.6.8 y ; : * : X X X X X X X X X X X X X X X X X X X X X X X X X X X X X X X   > % - > u 9 6.(._.8.V n.Q. Xa.2 ",
"+ M.H.v.l.l 8.B.M.}.& * : : - @ X X X X X X X X X X X X X X X X X X X X X X X X X X X X X X # # @ : 5 : * , }.M.B.u.z j.v.H.V.X ",
"q ) &.;...S ' ( P <.= : > % > t X X X X X X X X X X X X X X X X X X X X X X X X X X X X X X X X > > % ; : = <.L / ` S ..;.&.] q ",
"% > t * : z 1 - * & : % & u 9 + X X X X X X X X X X X X X X X X X X X X X X X X X X X X X X + X o 9 9 ; - u & * : 1 S > * e : o ",
"9 : & : * N @ * u ; w u % @ * ; X X X X X X X X X X X X X X X X X X X X X X X X X X X X X X X X ; % 5 - r @ ; r * O T - 9 & : 9 ",
": &.-.L ) Q ( -.( -.8 : : > : - X X X X X X X X X X X X X X X X X X X X X X X X X X X X X X X X % - : - = = <.( &.( Q ) ( ) %.: ",
"@ -.^ ' y.M k.^ <.) . = * > : : X X X X X X X X X X X X X X X X X X X X X X X X X X X X X X X X > : 0 : * O _ <.^ k.M 7.) L <.@ ",
"9 g.y.k.8.z ) k.y.0.9 : - - i * X X X X X X X X X X X X X X X X X X X X X X X X X X X X X X X X : 9 : : : 9 0.y.k.) z t.k.y.g.9 ",
"@ f.`.E.d.E 7.!.].y.u > O : O > X X X X X X X X X X X X X X X X X X X X X X X X X X X X X X X X > - - % > 9 0.].!.7.E d.E.`.f.@ ",
": j.Y v u.M y.M l t.: o > : O > X X X X X X X X X X X X X X X X X X X X X X X X X X X X X X X X > @ : i % @ p.M N y.Y y.v M j.9 ",
"o u.f [ a.~ 4.p Y.p.: > : 9 : : X X X X X X X X X X X X X X X X X X X X X X X X X X X X X X X X * : 9 - > @ u.Y.d 8.! u.[ f i.o ",
"t t.f A.p.c u.a e.P.X ; * - i : X X X X X X X X X X X X X X X X X X X X X X X X X X X X X X X X % u * * ; O d.e.d t.c i.U.p t.t ",
"* a.W M i.G y.Y D i.0 = : : O > X X X X X X X X X X X X X X X X X X X X X X X X X X X X X X X X > : : : = 0 p.D M y.Y u.M Y y.* ",
"+ d.W.W.d.v s.!.Q.t.9 0 . > 9 - X X X X X X X X X X X X X X X X X X X X X X X X X X X X X X X X - 9 > * 0 > 8.).!.s.b i.W.Q.l.@ ",
"0 h.W.).I.G 7.^.|.|.& ; : - 8 - X X X X X X X X X X X X X X X X X X X X X X X X X X X X X X X X - * r : > % }.|.).9.M m.).W.h.q ",
"% M.c.J.d.v D.N.K.K.& > r w = 0 X X X X X X X X X X X X X X X X X X X X X X X X X X X X X X X X 0 * w - ; & K.K.N.D.c d.J.c.M.+ ",
"> '  .` ) D ) ,.L  .5 : 9 r * - X X X X X X X X X X X X X X X X X X X X X X X X X X X X X X X X : * u : * 5 ..L ` ( D ) &. .2.: ",
"r n G m M Y n M H b u O O > * r X X X X X X X X X X X X X X X X X X X X X X X X X X X X X X X X t * > O O u v G M n Y N m W n : ",
"- H D S Y v G b n N - * = 1 6 r X X X X X X X X X X X X X X X X X X X X X X X X X X X X X X X X r @ ; = * - N n F E v Y C D H - ",
"7 ) L =...F L ' ] <.- > % > @ : X X X X X X X X X X X X X X X X X X X X X X X X X X X X X X X X : O > = > - 2.] <.L b &.=.L ) q ",
"r u.&.*.p.! l.( ( ..@ : : r = 9 X X X X X X X X X X X X X X X X X X X X X X X X X X X X X X X X : = 5 - > : ..( L l.! p.&.&.u.r ",
": i.0.y.k.A ' 7.y.y.= * @ : - : X X X X X X X X X X X X X X X X X X X X X X X X X X X X X X X X - - : : * 0 y.t.7.1.A j.y.y.p.: ",
": a.`.'.y.n d.!.].a.O > 9 - : > X X X X X X X X X X X X X X X X X X X X X X X X X X X X X X X X : : - 9 > O y.].!.i.N y.).`.y.> ",
"O a.v x P.N w.N M p.9 : : % 9 : X X X X X X X X X X X X X X X X X X X X X X X X X X X X X X X X * 9 O > - 9 p.S N e.N d.x c a.: ",
"- i.j Z.y.M P.a e.a.O # > 0 @ > X X X X X X X X X X X X X X X X X X X X X X X X X X X X X X X X & @ i t # O l.e.a P.M y.Z.j i.* ",
"> t.v G 7.G h.D Q t.9 * > % O > X X X X X X X X X X X X X X X X X X X X X X X X X X X X X X X X > @ % - - 9 q.Q G h.G 0.D b w.; ",
"* w.`.W.G.l d.E.Q.4.: 2 X i ; @ X X X X X X X X X + X X X X X X X X X X X X X X X X X X X X X X * ; i X 1 0 4.Q.E.d.l G.Q.!.u.* ",
": s.E.~.y.S r.!.W.z.. ; u - > : X X X X X X X X X X X X X X X X X X X X X X X X X X X X X X X X : - : u > . k.W.!.r.F y.~.E.F.: ",
"; t.). XI.b 7.!.W.}.= @ t - @ ; X X X X X X X X X X X X X X X X X X X X X X X X X X X X X X X X ; 5 - t O = }.W.!.7.F I.!.).y.; ",
"2 b.L.V.i.T S.c.B.b.1 : e - ; 0 X X X X X X X X X X X X X X X X X X X X X X X X X X X X X X X X 9 ; - - - 2 b.V.c.i.R y.V.L.b.2 ",
"6 =.L ( ) S =.&.&.) . : : @ > @ X X X X X X X X X X X X X X X X X X X X X X X X X X X X X X X X @ > : : : o ' &.&.=.S ' &.( %.6 ",
"< N K S v z F F G H : 9 8 @ > - X X X X X X X X X X X X X X X X X X X X X X X X X X X X X X X X - > @ * u : M S F S G c C ~ N < ",
": R U M Z #.J n l M O & ; : 1 > X X X X X X X X X X X X X X X X X X X X X X X X X X X X X X X X > 1 : & & * b S n J #.Z M U U - ",
"7 ,.X.X.} x.O.} @.>.1 u 5 5 * O X X X X X X X X X X X X X X X X X X X X X X X X X X X X X X X X - * 5 y u 1 >.3.} O.x.} X.X...q ",
"6 =.-.&.( &.L ( L / O - e t ; 5 X X X X X X X X X X X X X X X X X X X X X X X X X X X X X X X X 5 * t ; - * / L ( ..&.( &.-.-.4 ",
"e m b v W Y M V F G 9 - > > - : X X X X X X X X X X X X X X X X X X X X X X X X X X X X X X X X : * : > > : G G V G Y z F v m e ",
"5 ; 9 * : 9 + - > 1 : = @ 4 : ; X X X X X X X X X X X X X X X X X X X X X X X X X X X X X X X + e = 4 @ : : < - * @ 9 : ; 9 ; 5 "
};
